<svg width="320" height="88" viewBox="0 0 320 88" fill="none" xmlns="http://www.w3.org/2000/svg">
  <defs>
    <filter id="shadow" x="-5%" y="-5%" width="110%" height="110%">
      <feDropShadow dx="0" dy="4" stdDeviation="8" flood-color="#1E293B" flood-opacity="0.08"/>
    </filter>

    <linearGradient id="boxGrad" x1="0%" y1="0%" x2="100%" y2="100%">
      <stop offset="0%" stop-color="#1C1917" />
      <stop offset="100%" stop-color="#44403C" />
    </linearGradient>

    <linearGradient id="greenGrad" x1="0%" y1="0%" x2="100%" y2="100%">
      <stop offset="0%" stop-color="#34D399" />
      <stop offset="100%" stop-color="#059669" />
    </linearGradient>

    <linearGradient id="orangeGrad" x1="0%" y1="0%" x2="100%" y2="100%">
      <stop offset="0%" stop-color="#FBBF24" />
      <stop offset="100%" stop-color="#D97706" />
    </linearGradient>

    <linearGradient id="textGrad" x1="0%" y1="0%" x2="100%" y2="0%">
      <stop offset="0%" stop-color="#1C1917" />
      <stop offset="100%" stop-color="#57534E" />
    </linearGradient>
  </defs>

  <rect x="2" y="2" width="316" height="84" rx="24" fill="#FFFFFF" stroke="#E7E5E4" stroke-width="1.5" filter="url(#shadow)"/>

  <rect x="14" y="14" width="60" height="60" rx="16" fill="url(#boxGrad)"/>

  <g>
    <rect x="25" y="27" width="26" height="34" rx="5" transform="rotate(-12 38 44)" fill="url(#greenGrad)" opacity="0.95"/>
    <rect x="35" y="24" width="26" height="34" rx="5" transform="rotate(8 48 41)" fill="url(#orangeGrad)"/>
    <path d="M48 31L49.5 35.5L54 37L49.5 38.5L48 43L46.5 38.5L42 37L46.5 35.5Z" fill="#FFFFFF" opacity="0.95"/>
  </g>

  <text x="92" y="42" fill="url(#textGrad)" font-family="system-ui, -apple-system, sans-serif" font-size="24" font-weight="800" letter-spacing="-0.5">Flashcard</text>
  <text x="94" y="62" fill="#78716C" font-family="system-ui, -apple-system, sans-serif" font-size="11" font-weight="700" letter-spacing="4">LEARNING HUB</text>

  <g opacity="0.8">
    <circle cx="270" cy="30" r="3.5" fill="url(#greenGrad)"/>
    <circle cx="288" cy="44" r="4.5" fill="url(#orangeGrad)"/>
    <circle cx="264" cy="56" r="2.5" fill="#A8A29E"/>
    <path d="M272 32.5L285 41.5" stroke="#E7E5E4" stroke-width="1.5" stroke-linecap="round" stroke-dasharray="2 2"/>
  </g>
</svg>